<?xml version="1.0" encoding="UTF-8" standalone="no"?>
<!-- Created with Inkscape (http://www.inkscape.org/) -->

<svg
   width="1372.5081"
   height="772.03558"
   viewBox="0 0 363.14228 204.26801"
   version="1.1"
   id="svg5"
   inkscape:version="1.2.2 (b0a8486541, 2022-12-01)"
   sodipodi:docname="viewx-3.svg"
   inkscape:export-filename="fanart-3.png"
   inkscape:export-xdpi="134.28999"
   inkscape:export-ydpi="134.28999"
   xmlns:inkscape="http://www.inkscape.org/namespaces/inkscape"
   xmlns:sodipodi="http://sodipodi.sourceforge.net/DTD/sodipodi-0.dtd"
   xmlns:xlink="http://www.w3.org/1999/xlink"
   xmlns="http://www.w3.org/2000/svg"
   xmlns:svg="http://www.w3.org/2000/svg"
   xmlns:rdf="http://www.w3.org/1999/02/22-rdf-syntax-ns#"
   xmlns:cc="http://creativecommons.org/ns#">
  <sodipodi:namedview
     id="namedview7"
     pagecolor="#ffffff"
     bordercolor="#000000"
     borderopacity="0.25"
     inkscape:showpageshadow="2"
     inkscape:pageopacity="0.0"
     inkscape:pagecheckerboard="0"
     inkscape:deskcolor="#d1d1d1"
     inkscape:document-units="mm"
     showgrid="false"
     inkscape:zoom="0.45254834"
     inkscape:cx="583.36309"
     inkscape:cy="141.42136"
     inkscape:window-width="1680"
     inkscape:window-height="981"
     inkscape:window-x="0"
     inkscape:window-y="0"
     inkscape:window-maximized="1"
     inkscape:current-layer="layer4-3"
     showguides="true" />
  <defs
     id="defs2">
    <inkscape:path-effect
       effect="powerclip"
       id="path-effect5377"
       is_visible="true"
       lpeversion="1"
       inverse="true"
       flatten="false"
       hide_clip="false"
       message="íÉAF" />
    <linearGradient
       inkscape:collect="always"
       id="linearGradient4484">
      <stop
         style="stop-color:#ffffff;stop-opacity:1;"
         offset="0"
         id="stop4480" />
      <stop
         style="stop-color:#000000;stop-opacity:1;"
         offset="1"
         id="stop4482" />
    </linearGradient>
    <linearGradient
       inkscape:collect="always"
       id="linearGradient4036">
      <stop
         style="stop-color:#000000;stop-opacity:1;"
         offset="0"
         id="stop4032" />
      <stop
         style="stop-color:#ffffff;stop-opacity:0;"
         offset="1"
         id="stop4034" />
    </linearGradient>
    <filter
       inkscape:menu-tooltip="In and out glow with a possible offset and colorizable flood"
       inkscape:menu="Shadows and Glows"
       inkscape:label="Cutout Glow"
       style="color-interpolation-filters:sRGB"
       id="filter442"
       x="-0.13970707"
       y="-0.99290155"
       width="1.2794141"
       height="2.9858031"
       inkscape:auto-region="true">
      <feOffset
         dy="0"
         dx="0"
         id="feOffset432"
         preserveAlpha="true" />
      <feGaussianBlur
         stdDeviation="10 19"
         result="blur"
         id="feGaussianBlur434" />
      <feFlood
         flood-color="rgb(0,0,0)"
         flood-opacity="1.3877787807814457e-16"
         result="flood"
         id="feFlood436" />
      <feComposite
         in="flood"
         in2="SourceGraphic"
         operator="in"
         result="composite"
         id="feComposite438" />
      <feBlend
         in="blur"
         in2="composite"
         mode="normal"
         id="feBlend440" />
    </filter>
    <mask
       maskUnits="userSpaceOnUse"
       id="mask4450">
      <rect
         style="opacity:1;fill:url(#radialGradient4454);fill-opacity:1;stroke-width:0.212503"
         id="rect4452"
         width="105.73669"
         height="54.712055"
         x="96.000931"
         y="66.122368"
         mask="none"
         inkscape:transform-center-x="-0.35361957"
         inkscape:transform-center-y="-1.4259327" />
    </mask>
    <radialGradient
       inkscape:collect="always"
       xlink:href="#linearGradient4036"
       id="radialGradient4454"
       gradientUnits="userSpaceOnUse"
       gradientTransform="matrix(9.0899693,-0.00872511,0.01519146,1.4585584,-1755.4048,-47.206176)"
       cx="201.71516"
       cy="96.179832"
       fx="201.71516"
       fy="96.179832"
       r="48.471817" />
    <mask
       maskUnits="userSpaceOnUse"
       id="mask4456">
      <rect
         style="opacity:1;fill:url(#radialGradient4460);fill-opacity:1;stroke-width:0.298747"
         id="rect4458"
         width="130.61107"
         height="87.539284"
         x="120.54003"
         y="51.038914"
         mask="none"
         inkscape:transform-center-x="-0.35361957"
         inkscape:transform-center-y="-1.4259327" />
    </mask>
    <radialGradient
       inkscape:collect="always"
       xlink:href="#linearGradient4036"
       id="radialGradient4460"
       gradientUnits="userSpaceOnUse"
       gradientTransform="matrix(11.22837,-0.01396018,0.01876522,2.3336935,-2166.4059,-130.28676)"
       cx="201.71516"
       cy="96.179832"
       fx="201.71516"
       fy="96.179832"
       r="48.471817" />
    <mask
       maskUnits="userSpaceOnUse"
       id="mask4462">
      <rect
         style="opacity:1;fill:url(#radialGradient4466);fill-opacity:1;stroke-width:0.390559"
         id="rect4464"
         width="139.51727"
         height="140.06287"
         x="156.35478"
         y="26.90538"
         mask="none"
         inkscape:transform-center-x="-0.35361957"
         inkscape:transform-center-y="-1.4259327" />
    </mask>
    <radialGradient
       inkscape:collect="always"
       xlink:href="#linearGradient4036"
       id="radialGradient4466"
       gradientUnits="userSpaceOnUse"
       gradientTransform="matrix(11.994018,-0.02233628,0.0200448,3.7339096,-2286.5351,-263.2157)"
       cx="201.71516"
       cy="96.179832"
       fx="201.71516"
       fy="96.179832"
       r="48.471817" />
    <mask
       maskUnits="userSpaceOnUse"
       id="mask5249">
      <rect
         style="opacity:0.714536;fill:url(#radialGradient5253);fill-opacity:1;stroke-width:0.10728"
         id="rect5251"
         width="49.200062"
         height="78.102577"
         x="147.87207"
         y="53.073349" />
    </mask>
    <radialGradient
       inkscape:collect="always"
       xlink:href="#linearGradient4484"
       id="radialGradient5253"
       gradientUnits="userSpaceOnUse"
       gradientTransform="matrix(4.2781175,-0.03394362,0.01947313,1.4961263,-510.52179,-40.498691)"
       cx="154.9894"
       cy="91.330956"
       fx="154.9894"
       fy="91.330956"
       r="24.600031" />
    <clipPath
       clipPathUnits="userSpaceOnUse"
       id="clipPath3469">
      <g
         id="g3473"
         transform="matrix(0.46648626,0,0,0.51551242,86.723946,41.290047)">
        <rect
           style="opacity:1;fill:#ffffff;fill-opacity:0.564101;stroke-width:0.361847"
           id="rect3471"
           width="79.520218"
           height="167.31322"
           x="140.05882"
           y="20.337353" />
      </g>
    </clipPath>
  </defs>
  <g
     inkscape:groupmode="layer"
     id="layer4-3"
     inkscape:label="background fanart"
     style="display:inline"
     transform="matrix(1.760044,0,0,0.99002459,-329.94606,-21.241353)">
    <rect
       style="opacity:1;fill:#153332;fill-opacity:1;stroke-width:0.332134"
       id="rect590-6"
       width="206.3262"
       height="206.3262"
       x="187.4644"
       y="21.455379" />
  </g>
  <g
     inkscape:groupmode="layer"
     id="layer4"
     inkscape:label="background"
     style="display:none"
     sodipodi:insensitive="true"
     transform="translate(78.79931,7.7336531)">
    <rect
       style="opacity:1;fill:#153332;fill-opacity:1;stroke-width:0.32195"
       id="rect590"
       width="200"
       height="200"
       x="2.8673849"
       y="-5.5996575"
       ry="0.87764531" />
  </g>
  <g
     inkscape:label="glow"
     inkscape:groupmode="layer"
     id="g430"
     style="display:none;fill:#d6fb45;fill-opacity:1;filter:url(#filter442)"
     transform="matrix(1.1,0,0,1.1,68.512572,-1.7063812)"
     sodipodi:insensitive="true">
    <g
       id="g428"
       transform="translate(0.38342309,3.6326312)">
      <path
         d="m 145.83951,68.158012 c 1.90984,-0.922077 4.10258,-0.03928 6.57825,2.648534 l 12.97963,10.215355 13.01497,-10.215355 c 2.47573,-2.687766 4.66845,-3.570611 6.57824,-2.648534 2.47571,1.196753 2.86474,2.707387 1.16711,4.53193 L 174.454,90.023113 187.43093,108.91598 c 1.39112,1.51064 1.24967,2.79568 -0.4244,3.85508 -2.12202,1.33409 -3.89034,1.25561 -5.30504,-0.23542 l -16.3041,-13.161855 -16.26875,13.161855 c -1.41469,1.51066 -3.18299,1.58913 -5.30504,0.23542 -1.67402,-1.0594 -1.81547,-2.34444 -0.4244,-3.85508 L 156.37614,90.023113 144.6724,72.689942 c -1.69758,-1.824543 -1.30856,-3.335177 1.16711,-4.53193 z"
         id="path410"
         sodipodi:nodetypes="ccccccccccccccccc"
         style="fill:#d6fb45;fill-opacity:1;stroke-width:0.884876" />
      <g
         aria-label="view"
         transform="matrix(1.2870743,0,0,0.77695593,-1.2387003,-20.035459)"
         id="g426"
         style="fill:#d6fb45;fill-opacity:1;stroke-width:0.42565">
        <path
           d="m 13.853246,137.2452 c -0.0158,-0.8383 0.1288,-1.66463 0.434728,-2.47898 0.305918,-0.8383 0.780898,-1.47301 1.424942,-1.90414 1.046566,-0.67064 1.996528,-0.63471 2.849884,0.10778 0.966064,0.8383 1.650354,2.11971 2.052884,3.84421 l 6.360078,23.2056 c 2.79973,-5.31454 5.70635,-21.44896 7.220397,-27.42945 0.277492,-0.31501 1.037744,-0.15128 1.431708,0.16092 0.611838,0.40718 1.032506,1.14084 1.386728,1.97914 0.30592,0.76645 0.733196,2.13774 0.717096,3.0479 -2.059706,9.98409 -7.134837,28.31327 -7.721052,29.57399 -0.289818,1.12572 -0.877506,2.21548 -1.763062,3.26936 -0.72455,0.8862 -1.585955,1.32932 -2.584217,1.32932 -0.949962,0 -1.827468,-0.43112 -2.632518,-1.29338 -0.885558,-0.95808 -1.481298,-2.05984 -1.787218,-3.3053 l -6.931498,-27.16095 c -0.289822,-1.10176 -0.442778,-2.08377 -0.45888,-2.94602 z"
           id="path416"
           sodipodi:nodetypes="ccccccccccccscccc"
           style="opacity:1;fill:#d6fb45;fill-opacity:1;stroke-width:0.818912" />
        <path
           d="m 47.776235,132.73513 0.0377,33.18174 c 0.0048,1.72492 -0.270608,3.15886 -0.826496,4.3018 -0.555064,1.21476 -1.385834,1.86258 -2.492304,1.9435 -1.155582,0.0606 -2.049462,-0.44916 -2.68164,-1.5291 -0.630998,-0.98424 -0.94868,-2.31488 -0.953042,-3.99192 l 0.06064,-33.923 c 6.831204,-0.0366 0.033,0.009 6.85515,0.0168 z"
           id="path418"
           sodipodi:nodetypes="ccccccccc"
           style="opacity:1;fill:#d6fb45;fill-opacity:1;stroke-width:0.823428" />
        <path
           d="m 73.31119,153.86447 -15.984654,1.37187 c 0.265038,1.85634 0.59483,3.68027 1.555043,5.36279 1.305899,2.39117 2.858736,3.82731 5.327867,4.64042 4.391907,0.83695 7.193909,-0.64769 9.221271,-3.58206 0.752867,-1.08969 1.161295,-2.25407 1.553722,-2.5237 0.503849,0.3538 0.952845,0.91691 1.157993,2.10739 0.375468,2.17885 0.393522,3.00493 0.331174,4.74335 -2.317224,5.98947 -9.21571,6.28443 -12.291177,5.9118 -3.621839,-0.49612 -6.580552,-2.30289 -8.87614,-5.42034 -2.740977,-3.74878 -4.001501,-8.68305 -3.781572,-14.80281 0.190423,-4.92285 1.252042,-9.16162 3.184872,-12.71631 2.47448,-4.54419 5.920103,-6.4472 9.583739,-6.42646 4.019647,0.0954 6.495547,1.44643 8.890171,5.14473 2.973044,4.62863 3.388887,13.69509 3.050973,14.87819 0.02233,1.22019 -1.896218,1.22217 -2.92318,1.31122 z m -13.872227,-10.2888 c -0.952096,1.8824 -1.634421,3.73088 -1.867244,5.79821 l 14.467573,-1.28222 c -0.355809,-3.15042 -1.491662,-5.08695 -2.16899,-5.79506 -1.274854,-1.31028 -3.131221,-1.82747 -4.725285,-1.79652 -2.21026,0.0429 -4.321326,0.67767 -5.706054,3.07559 z"
           id="path420"
           style="opacity:1;fill:#d6fb45;fill-opacity:1;stroke-width:0.835028"
           sodipodi:nodetypes="ccccscsccccccccccccccsc" />
        <path
           d="m 99.839025,133.85861 c -0.210542,-0.42997 0.442895,0.46897 1.204295,3.81771 l 2.45994,22.53141 c 3.10835,-7.37904 5.57755,-21.47791 6.97765,-27.4175 0.95039,-0.0719 1.15307,0.13426 1.64587,0.39771 0.58244,0.3846 0.94595,1.05175 1.31555,1.79424 0.2879,0.67872 0.68556,1.69391 0.66796,2.50826 -2.06086,10.11235 -4.75054,20.49091 -7.38273,29.73565 -0.3344,1.3413 -0.89322,2.36554 -1.77321,3.4673 -0.77439,0.95806 -1.70718,1.43708 -2.79836,1.43708 -1.44319,0 -2.560771,-0.50296 -3.352761,-1.50894 -0.84479,-1.05384 -1.37278,-2.43106 -1.583978,-4.13162 l -1.821578,-14.22715 -3.64315,14.47863 c -0.404798,1.60476 -1.020788,2.9221 -1.847978,3.952 -0.774388,0.95806 -1.803976,1.43708 -3.088758,1.43708 -1.249584,0 -2.25277,-0.50296 -3.00956,-1.50894 -0.73919,-0.95806 -1.223184,-2.22748 -1.451982,-3.80826 l -3.775148,-27.55615 c -0.0352,-0.21555 -0.0616,-0.35927 -0.07918,-0.43113 -0.17602,-1.46104 -0.0352,-2.76639 0.422396,-3.91606 0.457594,-1.19757 1.214384,-1.89216 2.27037,-2.08377 1.355182,-0.26347 2.384766,0.16766 3.088758,1.29337 0.82719,1.34128 1.346384,2.87418 1.55758,4.59868 l 2.872612,20.8315 5.59002,-21.01114 c 0.879988,-3.85618 1.561464,-5.78427 3.46224,-5.78427 1.361824,0.169 1.643596,0.52799 2.073146,1.10431 z"
           id="path422"
           sodipodi:nodetypes="cccccccccscccccsccccccccccccc"
           style="opacity:1;fill:#d6fb45;fill-opacity:1;stroke-width:0.856178" />
        <path
           d="m 44.222679,117.73334 0.08318,-0.006 c 0.637936,-0.0525 1.223158,0.152 1.755674,0.61348 0.588494,0.50278 1.040812,1.24643 1.356966,2.23095 0.25867,0.80551 0.393156,1.67865 0.403456,2.61943 l 0.0044,0.41302 7.52e-4,0.0688 c -0.04342,1.10595 -0.261302,2.12291 -0.653684,3.05088 -0.35203,0.80981 -0.754984,1.40563 -1.208862,1.78746 -0.467242,0.42886 -0.992098,0.66725 -1.574556,0.71516 l -0.12482,0.0102 c -0.582712,0.0249 -1.126582,-0.20588 -1.631614,-0.69258 -0.504776,-0.46374 -0.914238,-1.09608 -1.22838,-1.89703 -0.342636,-0.86751 -0.519728,-1.82901 -0.531286,-2.88451 -0.0106,-0.98667 0.1316,-1.92852 0.427122,-2.82555 0.295804,-0.87408 0.676446,-1.60587 1.141936,-2.19535 0.54844,-0.61927 1.141628,-0.95514 1.779562,-1.00761 z"
           id="path424"
           style="opacity:1;fill:#d6fb45;fill-opacity:1;stroke-width:0.744216" />
      </g>
    </g>
  </g>
  <g
     inkscape:label="triangle R"
     inkscape:groupmode="layer"
     id="g4476"
     style="display:inline;fill:#ddfb45;fill-opacity:1"
     transform="matrix(1.0165784,0,0,1.5,133.22773,-40.910947)">
    <path
       d="m 157.74929,84.841491 31.57025,-24.133162 c 1.70042,-0.502336 0.9356,-0.774586 0.17405,0.522804 -18.84594,15.16869 -19.7431,15.274141 -30.46952,24.266415 -3.14835,2.639358 -3.034,6.223164 -0.0853,8.959112 10.98297,10.19055 22.62099,19.59277 30.76708,26.5714 0.96453,1.25555 1.28619,1.03168 -0.4439,0.37962 L 170.06604,105.48761 158.4184,95.481909 c -4.57031,-4.487976 -4.2273,-7.464913 -0.6691,-10.640418 z"
       id="path4468"
       sodipodi:nodetypes="cccsscccccc"
       style="fill:#ddfb45;fill-opacity:1;stroke-width:1.15034"
       mask="url(#mask5249)"
       transform="matrix(2.1436859,0,0,1.9398175,-178.30903,-81.322189)" />
  </g>
  <g
     inkscape:label="triangle L"
     inkscape:groupmode="layer"
     id="g5263"
     style="display:inline;fill:#d6fb45;fill-opacity:1"
     transform="matrix(-1.0165784,0,0,1.5,223.32615,-42.751497)"
     inkscape:transform-center-x="-143.90389"
     inkscape:transform-center-y="-2.6581281">
    <path
       d="m 157.74929,84.841491 31.57025,-24.133162 c 1.70042,-0.502336 0.9356,-0.774586 0.17405,0.522804 -18.84594,15.16869 -19.7431,15.274141 -30.46952,24.266415 -3.14835,2.639358 -2.73723,5.875923 -0.0853,8.77725 11.26813,10.014402 22.62099,19.774632 30.76708,26.753262 0.96453,1.25555 1.28619,1.03168 -0.4439,0.37962 L 170.06604,105.48761 158.4184,95.481909 c -4.57031,-4.487976 -4.2273,-7.464913 -0.6691,-10.640418 z"
       id="path5255"
       sodipodi:nodetypes="ccccccccccc"
       style="fill:#ddfb45;fill-opacity:1;stroke-width:1.15034"
       mask="url(#mask5249)"
       transform="matrix(2.1436859,0,0,1.9398175,-185.9089,-80.095155)"
       clip-path="url(#clipPath3469)" />
  </g>
  <g
     inkscape:label="Layer 1"
     inkscape:groupmode="layer"
     id="layer1"
     style="display:none;fill:#d6fb45;fill-opacity:1"
     transform="translate(78.79931,7.7336531)">
    <g
       id="g131013"
       transform="translate(0.38342309,3.6326312)">
      <path
         d="m 145.83951,68.158012 c 1.90984,-0.922077 4.10258,-0.03928 6.57825,2.648534 l 12.97963,10.215355 13.01497,-10.215355 c 2.47573,-2.687766 4.66845,-3.570611 6.57824,-2.648534 2.47571,1.196753 2.86474,2.707387 1.16711,4.53193 L 174.454,90.023113 187.43093,108.91598 c 1.39112,1.51064 1.24967,2.79568 -0.4244,3.85508 -2.12202,1.33409 -3.89034,1.25561 -5.30504,-0.23542 l -16.3041,-13.161855 -16.26875,13.161855 c -1.41469,1.51066 -3.18299,1.58913 -5.30504,0.23542 -1.67402,-1.0594 -1.81547,-2.34444 -0.4244,-3.85508 L 156.37614,90.023113 144.6724,72.689942 c -1.69758,-1.824543 -1.30856,-3.335177 1.16711,-4.53193 z"
         id="path277-6"
         sodipodi:nodetypes="ccccccccccccccccc"
         style="fill:#d6fb45;fill-opacity:1;stroke-width:0.884876" />
      <g
         aria-label="view"
         transform="matrix(1.2870743,0,0,0.77695593,-1.2387003,-20.035459)"
         id="text393"
         style="fill:#d6fb45;fill-opacity:1;stroke-width:0.42565">
        <path
           d="m 15.497802,137.2452 c -0.0158,-0.8383 0.1288,-1.66463 0.434728,-2.47898 0.305918,-0.8383 0.780898,-1.47301 1.424942,-1.90414 1.046566,-0.67064 1.996528,-0.63471 2.849884,0.10778 0.966064,0.8383 1.650354,2.11971 2.052884,3.84421 l 6.360078,23.2056 c 2.79973,-5.31454 5.70635,-21.44896 7.220397,-27.42945 0.277492,-0.31501 1.037744,-0.15128 1.431708,0.16092 0.611838,0.40718 1.032506,1.14084 1.386728,1.97914 0.30592,0.76645 0.733196,2.13774 0.717096,3.0479 -2.059706,9.98409 -7.134837,28.31327 -7.721052,29.57399 -0.289818,1.12572 -0.877506,2.21548 -1.763062,3.26936 -0.72455,0.8862 -1.585955,1.32932 -2.584217,1.32932 -0.949962,0 -1.827468,-0.43112 -2.632518,-1.29338 -0.885558,-0.95808 -1.481298,-2.05984 -1.787218,-3.3053 l -6.931498,-27.16095 c -0.289822,-1.10176 -0.442778,-2.08377 -0.45888,-2.94602 z"
           id="path395"
           sodipodi:nodetypes="ccccccccccccscccc"
           style="opacity:1;fill:#d6fb45;fill-opacity:1;stroke-width:0.818912" />
        <path
           d="m 49.83193,132.73513 0.0377,33.18174 c 0.0048,1.72492 -0.270608,3.15886 -0.826496,4.3018 -0.555064,1.21476 -1.385834,1.86258 -2.492304,1.9435 -1.155582,0.0606 -2.049462,-0.44916 -2.68164,-1.5291 -0.630998,-0.98424 -0.94868,-2.31488 -0.953042,-3.99192 l 0.06064,-33.923 c 6.831204,-0.0366 0.033,0.009 6.85515,0.0168 z"
           id="path397"
           sodipodi:nodetypes="ccccccccc"
           style="opacity:1;fill:#d6fb45;fill-opacity:1;stroke-width:0.823428" />
        <path
           d="m 66.462263,164.74505 c 1.125751,-0.21623 2.236128,-0.53551 3.30091,-1.84001 1.509616,-1.76351 3.146486,-4.1202 3.782515,-7.95625 0.635729,-4.70007 0.509535,-9.10327 -0.997462,-13.10326 -0.547743,-1.13876 -0.886481,-1.44793 -1.152716,-1.80854 -0.03173,-0.85956 0.07936,-1.70452 0.381061,-2.27276 0.543879,-0.87244 0.884438,-1.1582 2.120194,-1.75336 3.436434,4.18658 3.424466,15.09367 3.011958,19.79025 -0.520032,5.52501 -1.849317,10.00361 -3.854065,13.21582 -2.40954,3.83269 -5.436187,5.26354 -9.079926,4.29254 -2.930256,-0.80187 -5.397925,-2.87439 -7.402992,-6.21755 -2.563004,-4.27936 -3.487616,-9.78098 -3.249096,-15.41947 0.47672,-5.94453 1.174186,-9.39796 3.952704,-13.9944 1.995244,-3.30069 3.583625,-4.45671 8.337521,-4.92978 0.278762,0.0804 0.445286,0.37781 0.524384,0.81716 0.04873,1.35517 0.396134,24.16142 0.32501,31.17961 z m -6.838301,-4.45731 c 1.0662,1.66039 2.128793,2.90194 3.349901,3.47402 l 0.106159,-23.42324 c -1.904728,0.22227 -3.111628,2.78702 -3.576621,3.75668 -0.861725,1.82742 -1.285406,4.63206 -1.365288,7.08953 -0.110785,3.40741 0.138277,6.72326 1.485859,9.10301 z"
           id="path399"
           style="opacity:1;fill:#d6fb45;fill-opacity:1;stroke-width:0.803754"
           sodipodi:nodetypes="ccccccccccccsccccccscccc" />
        <path
           d="m 99.839025,133.85861 c -0.210542,-0.42997 0.442895,0.46897 1.204295,3.81771 l 2.45994,22.53141 c 3.10835,-7.37904 5.57755,-21.47791 6.97765,-27.4175 0.95039,-0.0719 1.15307,0.13426 1.64587,0.39771 0.58244,0.3846 0.94595,1.05175 1.31555,1.79424 0.2879,0.67872 0.68556,1.69391 0.66796,2.50826 -2.06086,10.11235 -4.75054,20.49091 -7.38273,29.73565 -0.3344,1.3413 -0.89322,2.36554 -1.77321,3.4673 -0.77439,0.95806 -1.70718,1.43708 -2.79836,1.43708 -1.44319,0 -2.560771,-0.50296 -3.352761,-1.50894 -0.84479,-1.05384 -1.37278,-2.43106 -1.583978,-4.13162 l -1.821578,-14.22715 -3.64315,14.47863 c -0.404798,1.60476 -1.020788,2.9221 -1.847978,3.952 -0.774388,0.95806 -1.803976,1.43708 -3.088758,1.43708 -1.249584,0 -2.25277,-0.50296 -3.00956,-1.50894 -0.73919,-0.95806 -1.223184,-2.22748 -1.451982,-3.80826 l -3.775148,-27.55615 c -0.0352,-0.21555 -0.0616,-0.35927 -0.07918,-0.43113 -0.17602,-1.46104 -0.0352,-2.76639 0.422396,-3.91606 0.457594,-1.19757 1.214384,-1.89216 2.27037,-2.08377 1.355182,-0.26347 2.384766,0.16766 3.088758,1.29337 0.82719,1.34128 1.346384,2.87418 1.55758,4.59868 l 2.872612,20.8315 5.59002,-21.01114 c 0.879988,-3.85618 1.561464,-5.78427 3.46224,-5.78427 1.361824,0.169 1.643596,0.52799 2.073146,1.10431 z"
           id="path401"
           sodipodi:nodetypes="cccccccccscccccsccccccccccccc"
           style="opacity:1;fill:#d6fb45;fill-opacity:1;stroke-width:0.856178" />
        <path
           d="m 46.278374,117.73334 0.08318,-0.006 c 0.637936,-0.0525 1.223158,0.152 1.755674,0.61348 0.588494,0.50278 1.040812,1.24643 1.356966,2.23095 0.25867,0.80551 0.393156,1.67865 0.403456,2.61943 l 0.0044,0.41302 7.52e-4,0.0688 c -0.04342,1.10595 -0.261302,2.12291 -0.653684,3.05088 -0.35203,0.80981 -0.754984,1.40563 -1.208862,1.78746 -0.467242,0.42886 -0.992098,0.66725 -1.574556,0.71516 l -0.12482,0.0102 c -0.582712,0.0249 -1.126582,-0.20588 -1.631614,-0.69258 -0.504776,-0.46374 -0.914238,-1.09608 -1.22838,-1.89703 -0.342636,-0.86751 -0.519728,-1.82901 -0.531286,-2.88451 -0.0106,-0.98667 0.1316,-1.92852 0.427122,-2.82555 0.295804,-0.87408 0.676446,-1.60587 1.141936,-2.19535 0.54844,-0.61927 1.141628,-0.95514 1.779562,-1.00761 z"
           id="path439"
           style="opacity:1;fill:#d6fb45;fill-opacity:1;stroke-width:0.744216" />
      </g>
    </g>
  </g>
  <g
     inkscape:label="Layer 1 copy"
     inkscape:groupmode="layer"
     id="g782"
     style="display:none;fill:#d6fb45;fill-opacity:1"
     transform="translate(78.79931,7.7336531)">
    <g
       id="g780"
       transform="matrix(1.14,0,0,1.14,-33.268328,-9.0748493)"
       style="display:inline;fill:#ddfb45;fill-opacity:1">
      <g
         id="g790"
         style="display:inline;fill:#ddfb45;fill-opacity:1">
        <path
           d="m 147.36203,68.158012 c 1.90984,-0.922077 4.10258,-0.03928 6.57825,2.648534 l 12.97963,10.215355 13.01497,-10.215355 c 2.47573,-2.687766 4.66845,-3.570611 6.57824,-2.648534 2.47571,1.196753 2.86474,2.707387 1.16711,4.53193 l -11.70371,17.333171 12.97693,18.892867 c 1.39112,1.51064 1.24967,2.79568 -0.4244,3.85508 -2.12202,1.33409 -3.89034,1.25561 -5.30504,-0.23542 l -16.3041,-13.161855 -16.26875,13.161855 c -1.41469,1.51066 -3.18299,1.58913 -5.30504,0.23542 -1.67402,-1.0594 -1.81547,-2.34444 -0.4244,-3.85508 L 157.89866,90.023113 146.19492,72.689942 c -1.69758,-1.824543 -1.30856,-3.335177 1.16711,-4.53193 z"
           id="path762"
           sodipodi:nodetypes="ccccccccccccccccc"
           style="display:inline;fill:#ddfb45;fill-opacity:1;stroke-width:0.884876" />
        <g
           aria-label="view"
           transform="matrix(1.2870743,0,0,0.77695593,-1.2387003,-20.035459)"
           id="g778"
           style="fill:#ddfb45;fill-opacity:1;stroke-width:0.42565">
          <path
             d="m 39.343864,137.2452 c -0.0158,-0.8383 0.1288,-1.66463 0.434728,-2.47898 0.305918,-0.8383 0.780898,-1.47301 1.424942,-1.90414 1.046566,-0.67064 1.996528,-0.63471 2.849884,0.10778 0.966064,0.8383 1.650354,2.11971 2.052884,3.84421 l 6.360078,23.2056 c 2.79973,-5.31454 5.70635,-21.44896 7.220397,-27.42945 0.277492,-0.31501 1.037744,-0.15128 1.431708,0.16092 0.611838,0.40718 1.032506,1.14084 1.386728,1.97914 0.30592,0.76645 0.733196,2.13774 0.717096,3.0479 -2.059706,9.98409 -7.134837,28.31327 -7.721052,29.57399 -0.289818,1.12572 -0.877506,2.21548 -1.763062,3.26936 -0.72455,0.8862 -1.585955,1.32932 -2.584217,1.32932 -0.949962,0 -1.827468,-0.43112 -2.632518,-1.29338 -0.885558,-0.95808 -1.481298,-2.05984 -1.787218,-3.3053 l -6.931498,-27.16095 c -0.289822,-1.10176 -0.442778,-2.08377 -0.45888,-2.94602 z"
             id="path768"
             sodipodi:nodetypes="ccccccccccccscccc"
             style="opacity:1;fill:#ddfb45;fill-opacity:1;stroke-width:0.818912" />
          <path
             d="m 74.089131,132.73513 0.0377,33.18174 c 0.0048,1.72492 -0.270608,3.15886 -0.826496,4.3018 -0.555064,1.21476 -1.385834,1.86258 -2.492304,1.9435 -1.155582,0.0606 -2.049462,-0.44916 -2.68164,-1.5291 -0.630998,-0.98424 -0.94868,-2.31488 -0.953042,-3.99192 l 0.06064,-33.923 c 6.831204,-0.0366 0.033,0.009 6.85515,0.0168 z"
             id="path770"
             sodipodi:nodetypes="ccccccccc"
             style="opacity:1;fill:#ddfb45;fill-opacity:1;stroke-width:0.823428" />
          <path
             d="m 99.839025,133.85861 c -0.210542,-0.42997 0.442895,0.46897 1.204295,3.81771 l 2.45994,22.53141 c 3.10835,-7.37904 5.57755,-21.47791 6.97765,-27.4175 0.95039,-0.0719 1.15307,0.13426 1.64587,0.39771 0.58244,0.3846 0.94595,1.05175 1.31555,1.79424 0.2879,0.67872 0.68556,1.69391 0.66796,2.50826 -2.06086,10.11235 -4.75054,20.49091 -7.38273,29.73565 -0.3344,1.3413 -0.89322,2.36554 -1.77321,3.4673 -0.77439,0.95806 -1.70718,1.43708 -2.79836,1.43708 -1.44319,0 -2.560771,-0.50296 -3.352761,-1.50894 -0.84479,-1.05384 -1.37278,-2.43106 -1.583978,-4.13162 l -1.821578,-14.22715 -3.64315,14.47863 c -0.404798,1.60476 -1.020788,2.9221 -1.847978,3.952 -0.774388,0.95806 -1.803976,1.43708 -3.088758,1.43708 -1.249584,0 -2.25277,-0.50296 -3.00956,-1.50894 -0.73919,-0.95806 -1.223184,-2.22748 -1.451982,-3.80826 l -3.775148,-27.55615 c -0.0352,-0.21555 -0.0616,-0.35927 -0.07918,-0.43113 -0.17602,-1.46104 -0.0352,-2.76639 0.422396,-3.91606 0.457594,-1.19757 1.214384,-1.89216 2.27037,-2.08377 1.355182,-0.26347 2.384766,0.16766 3.088758,1.29337 0.82719,1.34128 1.346384,2.87418 1.55758,4.59868 l 2.872612,20.8315 5.59002,-21.01114 c 0.879988,-3.85618 1.561464,-5.78427 3.46224,-5.78427 1.361824,0.169 1.643596,0.52799 2.073146,1.10431 z"
             id="path774"
             sodipodi:nodetypes="cccccccccscccccsccccccccccccc"
             style="opacity:1;fill:#ddfb45;fill-opacity:1;stroke-width:0.856178" />
          <path
             d="m 70.535575,117.73334 0.08318,-0.006 c 0.637936,-0.0525 1.223158,0.152 1.755674,0.61348 0.588494,0.50278 1.040812,1.24643 1.356966,2.23095 0.25867,0.80551 0.393156,1.67865 0.403456,2.61943 l 0.0044,0.41302 7.52e-4,0.0688 c -0.04342,1.10595 -0.261302,2.12291 -0.653684,3.05088 -0.35203,0.80981 -0.754984,1.40563 -1.208862,1.78746 -0.467242,0.42886 -0.992098,0.66725 -1.574556,0.71516 l -0.12482,0.0102 c -0.582712,0.0249 -1.126582,-0.20588 -1.631614,-0.69258 -0.504776,-0.46374 -0.914238,-1.09608 -1.22838,-1.89703 -0.342636,-0.86751 -0.519728,-1.82901 -0.531286,-2.88451 -0.0106,-0.98667 0.1316,-1.92852 0.427122,-2.82555 0.295804,-0.87408 0.676446,-1.60587 1.141936,-2.19535 0.54844,-0.61927 1.141628,-0.95514 1.779562,-1.00761 z"
             id="path776"
             style="opacity:1;fill:#ddfb45;fill-opacity:1;stroke-width:0.744216" />
        </g>
      </g>
    </g>
  </g>
  <g
     inkscape:label="Layer 1 copy copy"
     inkscape:groupmode="layer"
     id="g808"
     style="display:inline;fill:#ddfb45;fill-opacity:1"
     transform="matrix(0.95,0,0,0.95,83.942679,12.189087)">
    <g
       id="g806"
       transform="matrix(1.2,0,0,1.2,-40.433365,-19.812582)"
       style="fill:#ddfb45;fill-opacity:1">
      <g
         id="g804"
         style="fill:#ddfb45;fill-opacity:1">
        <path
           d="m 147.36203,68.158012 c 1.90984,-0.922077 4.10258,-0.03928 6.57825,2.648534 l 12.97963,10.215355 13.01497,-10.215355 c 2.47573,-2.687766 4.66845,-3.570611 6.57824,-2.648534 2.47571,1.196753 2.86474,2.707387 1.16711,4.53193 l -11.70371,17.333171 12.97693,18.892867 c 1.39112,1.51064 1.24967,2.79568 -0.4244,3.85508 -2.12202,1.33409 -3.89034,1.25561 -5.30504,-0.23542 l -16.3041,-13.161855 -16.26875,13.161855 c -1.41469,1.51066 -3.18299,1.58913 -5.30504,0.23542 -1.67402,-1.0594 -1.81547,-2.34444 -0.4244,-3.85508 L 157.89866,90.023113 146.19492,72.689942 c -1.69758,-1.824543 -1.30856,-3.335177 1.16711,-4.53193 z"
           id="path792"
           sodipodi:nodetypes="ccccccccccccccccc"
           style="display:inline;fill:#ddfb45;fill-opacity:1;stroke-width:0.884876" />
        <g
           aria-label="view"
           transform="matrix(1.2870743,0,0,0.77695593,-1.2387003,-20.035459)"
           id="g802"
           style="fill:#ddfb45;fill-opacity:1;stroke-width:0.42565">
          <path
             d="m 39.343864,137.2452 c -0.0158,-0.8383 0.1288,-1.66463 0.434728,-2.47898 0.305918,-0.8383 0.780898,-1.47301 1.424942,-1.90414 1.046566,-0.67064 1.996528,-0.63471 2.849884,0.10778 0.966064,0.8383 1.650354,2.11971 2.052884,3.84421 l 6.360078,23.2056 c 2.79973,-5.31454 5.70635,-21.44896 7.220397,-27.42945 0.277492,-0.31501 1.241767,0.0188 1.635731,0.33095 0.527003,0.4945 0.907338,1.03966 1.303452,1.82483 0.394239,0.78145 0.603961,1.87952 0.663594,2.56658 -2.059706,9.98409 -7.202082,28.77887 -7.788297,30.03959 -0.289818,1.12572 -0.877506,2.21548 -1.763062,3.26936 -0.72455,0.8862 -1.585955,1.32932 -2.584217,1.32932 -0.949962,0 -1.827468,-0.43112 -2.632518,-1.29338 -0.885558,-0.95808 -1.481298,-2.05984 -1.787218,-3.3053 l -6.931498,-27.16095 c -0.289822,-1.10176 -0.442778,-2.08377 -0.45888,-2.94602 z"
             id="path794"
             sodipodi:nodetypes="ccccccccscccscccc"
             style="opacity:1;fill:#ddfb45;fill-opacity:1;stroke-width:0.818912" />
          <path
             d="m 74.089131,132.73513 0.0377,33.18174 c 0.0048,1.72492 -0.270608,3.15886 -0.826496,4.3018 -0.555064,1.21476 -1.385834,1.86258 -2.492304,1.9435 -1.155582,0.0606 -2.049462,-0.44916 -2.68164,-1.5291 -0.630998,-0.98424 -0.94868,-2.31488 -0.953042,-3.99192 l 0.06064,-33.923 c 6.831204,-0.0366 0.033,0.009 6.85515,0.0168 z"
             id="path796"
             sodipodi:nodetypes="ccccccccc"
             style="opacity:1;fill:#ddfb45;fill-opacity:1;stroke-width:0.823428" />
          <path
             d="m 99.839025,133.85861 c -0.210542,-0.42997 0.442895,0.46897 1.204295,3.81771 l 2.45994,22.53141 c 3.10835,-7.37904 5.57755,-21.47791 6.97765,-27.4175 0.95039,-0.0719 1.15307,0.13426 1.64587,0.39771 0.58244,0.3846 0.94595,1.05175 1.31555,1.79424 0.2879,0.67872 0.68556,1.69391 0.66796,2.50826 -2.06086,10.11235 -4.75054,20.49091 -7.38273,29.73565 -0.3344,1.3413 -0.89322,2.36554 -1.77321,3.4673 -0.77439,0.95806 -1.70718,1.43708 -2.79836,1.43708 -1.44319,0 -2.560771,-0.50296 -3.352761,-1.50894 -0.84479,-1.05384 -1.37278,-2.43106 -1.583978,-4.13162 l -1.821578,-14.22715 -3.64315,14.47863 c -0.404798,1.60476 -1.020788,2.9221 -1.847978,3.952 -0.774388,0.95806 -1.803976,1.43708 -3.088758,1.43708 -1.249584,0 -2.25277,-0.50296 -3.00956,-1.50894 -0.73919,-0.95806 -1.223184,-2.22748 -1.451982,-3.80826 l -3.775148,-27.55615 c -0.0352,-0.21555 -0.0616,-0.35927 -0.07918,-0.43113 -0.17602,-1.46104 -0.0352,-2.76639 0.422396,-3.91606 0.457594,-1.19757 1.214384,-1.89216 2.27037,-2.08377 1.355182,-0.26347 2.384766,0.16766 3.088758,1.29337 0.82719,1.34128 1.346384,2.87418 1.55758,4.59868 l 2.872612,20.8315 5.59002,-21.01114 c 0.879988,-3.85618 1.561464,-5.78427 3.46224,-5.78427 1.361824,0.169 1.643596,0.52799 2.073146,1.10431 z"
             id="path798"
             sodipodi:nodetypes="cccccccccscccccsccccccccccccc"
             style="opacity:1;fill:#ddfb45;fill-opacity:1;stroke-width:0.856178" />
          <path
             d="m 70.535575,117.73334 0.08318,-0.006 c 0.637936,-0.0525 1.223158,0.152 1.755674,0.61348 0.588494,0.50278 1.040812,1.24643 1.356966,2.23095 0.25867,0.80551 0.393156,1.67865 0.403456,2.61943 l 0.0044,0.41302 7.52e-4,0.0688 c -0.04342,1.10595 -0.261302,2.12291 -0.653684,3.05088 -0.35203,0.80981 -0.754984,1.40563 -1.208862,1.78746 -0.467242,0.42886 -0.992098,0.66725 -1.574556,0.71516 l -0.12482,0.0102 c -0.582712,0.0249 -1.126582,-0.20588 -1.631614,-0.69258 -0.504776,-0.46374 -0.914238,-1.09608 -1.22838,-1.89703 -0.342636,-0.86751 -0.519728,-1.82901 -0.531286,-2.88451 -0.0106,-0.98667 0.1316,-1.92852 0.427122,-2.82555 0.295804,-0.87408 0.676446,-1.60587 1.141936,-2.19535 0.54844,-0.61927 1.141628,-0.95514 1.779562,-1.00761 z"
             id="path800"
             style="opacity:1;fill:#ddfb45;fill-opacity:1;stroke-width:0.744216" />
        </g>
      </g>
    </g>
  </g>
  <g
     inkscape:label="colour text"
     inkscape:groupmode="layer"
     id="g12768"
     style="display:none"
     sodipodi:insensitive="true"
     transform="translate(78.79931,7.7336531)">
    <g
       aria-label="X"
       transform="matrix(1.0387214,0,0,0.96272206,-2.2624128,4.1617979)"
       id="g12766"
       style="display:inline;fill:#d4fc44;fill-opacity:1;stroke-width:1.01356">
      <path
         d="m 143.969,70.247529 c 1.83864,-0.957782 3.94964,-0.0408 6.33302,2.751088 l 12.49578,10.610908 12.5298,-10.610908 c 2.38344,-2.79184 4.49442,-3.70887 6.33302,-2.751088 2.38342,1.243092 2.75794,2.81222 1.1236,4.707412 L 171.5168,92.959277 184.00998,112.5837 c 1.33926,1.56914 1.20308,2.90393 -0.40858,4.00436 -2.04292,1.38574 -3.74532,1.30422 -5.10728,-0.24454 l -15.69632,-13.6715 -15.66228,13.6715 c -1.36196,1.56915 -3.06434,1.65066 -5.10728,0.24454 -1.61162,-1.10043 -1.7478,-2.43522 -0.40858,-4.00436 L 154.11284,92.959277 142.8454,74.954941 c -1.6343,-1.895192 -1.25978,-3.46432 1.1236,-4.707412 z"
         id="path12748"
         sodipodi:nodetypes="ccccccccccccccccc"
         style="display:inline;opacity:1;fill:#d4fc44;fill-opacity:1;stroke-width:0.884876" />
      <g
         aria-label="view"
         transform="matrix(1.2390948,0,0,0.80704075,1.3546781,-21.360917)"
         id="g12764"
         style="display:inline;fill:#d4fc44;fill-opacity:1;stroke-width:0.42565">
        <path
           d="m 13.030968,137.2452 c -0.0158,-0.8383 0.1288,-1.66463 0.434728,-2.47898 0.305918,-0.8383 0.780898,-1.47301 1.424942,-1.90414 1.046566,-0.67064 1.996528,-0.63471 2.849884,0.10778 0.966064,0.8383 1.650354,2.11971 2.052884,3.84421 l 6.360078,23.2056 c 2.671399,-5.40446 5.551883,-21.55719 7.220397,-27.42945 0.277492,-0.31501 1.037744,-0.15128 1.431708,0.16092 0.611838,0.40718 1.032506,1.14084 1.386728,1.97914 0.30592,0.76645 0.733196,2.13774 0.717096,3.0479 -2.288808,9.83972 -7.22217,28.25823 -7.721052,29.57399 -0.289818,1.12572 -0.877506,2.21548 -1.763062,3.26936 -0.72455,0.8862 -1.585955,1.32932 -2.584217,1.32932 -0.949962,0 -1.827468,-0.43112 -2.632518,-1.29338 -0.885558,-0.95808 -1.481298,-2.05984 -1.787218,-3.3053 l -6.931498,-27.16095 c -0.289822,-1.10176 -0.442778,-2.08377 -0.45888,-2.94602 z"
           id="path12754"
           sodipodi:nodetypes="ccccccccccccscccc"
           style="opacity:1;fill:#d4fc44;fill-opacity:1;stroke-width:0.818912" />
        <path
           d="m 46.953957,132.73513 0.0377,33.18174 c 0.0048,1.72492 -0.270608,3.15886 -0.826496,4.3018 -0.555064,1.21476 -1.385834,1.86258 -2.492304,1.9435 -1.155582,0.0606 -2.049462,-0.44916 -2.68164,-1.5291 -0.630998,-0.98424 -0.94868,-2.31488 -0.953042,-3.99192 l 0.06064,-33.923 c 6.831204,-0.0366 0.033,0.009 6.85515,0.0168 z"
           id="path12756"
           sodipodi:nodetypes="ccccccccc"
           style="opacity:1;fill:#d4fc44;fill-opacity:1;stroke-width:0.823428" />
        <path
           d="m 72.492556,153.8072 -15.981145,1.47982 c 0.152841,1.33811 0.789237,2.75677 1.909182,4.25601 1.632833,2.15931 2.902249,3.55545 5.250282,4.04055 2.986821,0.74855 6.49505,0.39506 8.793848,-2.70879 0.447532,-0.55002 1.367847,-1.71555 1.714037,-1.80961 0.504716,0.3504 0.825956,1.55874 1.1057,2.70677 0.411687,1.6895 0.531662,3.31326 0.502887,3.9779 -2.302462,6.00507 -9.302737,6.50256 -12.379096,6.15072 -3.623029,-0.47165 -6.586165,-2.25843 -8.889407,-5.36035 -2.75018,-3.73024 -4.022838,-8.65596 -3.817974,-14.77714 0.178305,-4.9241 1.229482,-9.17001 3.153547,-12.73772 2.463276,-4.56086 5.780616,-6.76543 9.952014,-6.6137 4.321741,0.16934 7.536734,1.94954 9.644982,5.34065 1.934022,3.10671 2.780385,6.60233 2.539086,10.48685 -0.09228,1.62152 -0.441846,2.93689 -1.048717,3.94611 -0.606014,0.98535 -1.42239,1.52602 -2.449124,1.622 z m -13.574604,-10.085 c -0.233598,0.42876 -0.618131,1.31997 -1.153613,2.67362 l 12.095271,-1.17808 c -0.28362,-0.96936 -0.764962,-1.80579 -1.444026,-2.50932 -1.27807,-1.30166 -2.652077,-2.03845 -4.122028,-2.21034 -2.204923,-0.25785 -3.99679,0.81686 -5.375604,3.22412 z"
           id="path12758"
           style="opacity:1;fill:#d4fc44;fill-opacity:1;stroke-width:0.835028"
           sodipodi:nodetypes="ccccccscccccccccccccccsc" />
        <path
           d="m 99.839025,133.85861 c -0.210542,-0.42997 0.442895,0.46897 1.204295,3.81771 l 2.45994,22.53141 c 3.10835,-7.37904 5.57755,-21.47791 6.97765,-27.4175 0.95039,-0.0719 1.15307,0.13426 1.64587,0.39771 0.58244,0.3846 0.94595,1.05175 1.31555,1.79424 0.2879,0.67872 0.68556,1.69391 0.66796,2.50826 -2.06086,10.11235 -4.75054,20.49091 -7.38273,29.73565 -0.3344,1.3413 -0.89322,2.36554 -1.77321,3.4673 -0.77439,0.95806 -1.70718,1.43708 -2.79836,1.43708 -1.44319,0 -2.560771,-0.50296 -3.352761,-1.50894 -0.84479,-1.05384 -1.37278,-2.43106 -1.583978,-4.13162 l -1.821578,-14.22715 -3.64315,14.47863 c -0.404798,1.60476 -1.020788,2.9221 -1.847978,3.952 -0.774388,0.95806 -1.803976,1.43708 -3.088758,1.43708 -1.249584,0 -2.25277,-0.50296 -3.00956,-1.50894 -0.73919,-0.95806 -1.223184,-2.22748 -1.451982,-3.80826 l -3.775148,-27.55615 c -0.0352,-0.21555 -0.0616,-0.35927 -0.07918,-0.43113 -0.17602,-1.46104 -0.0352,-2.76639 0.422396,-3.91606 0.457594,-1.19757 1.214384,-1.89216 2.27037,-2.08377 1.355182,-0.26347 2.384766,0.16766 3.088758,1.29337 0.82719,1.34128 1.346384,2.87418 1.55758,4.59868 l 2.872612,20.8315 5.59002,-21.01114 c 0.879988,-3.85618 1.561464,-5.78427 3.46224,-5.78427 1.361824,0.169 1.643596,0.52799 2.073146,1.10431 z"
           id="path12760"
           sodipodi:nodetypes="cccccccccscccccsccccccccccccc"
           style="opacity:1;fill:#d4fc44;fill-opacity:1;stroke-width:0.856178" />
        <path
           d="m 43.400401,118.41442 0.08318,-0.006 c 0.637936,-0.0525 1.223158,0.152 1.755674,0.61348 0.588494,0.50278 1.040812,1.24643 1.356966,2.23095 0.25867,0.80551 0.393156,1.67865 0.403456,2.61943 l 0.0044,0.41302 7.52e-4,0.0688 c -0.04342,1.10595 -0.261302,2.12291 -0.653684,3.05088 -0.35203,0.80981 -0.754984,1.40563 -1.208862,1.78746 -0.467242,0.42886 -0.992098,0.66725 -1.574556,0.71516 l -0.12482,0.0102 c -0.582712,0.0249 -1.126582,-0.20588 -1.631614,-0.69258 -0.504776,-0.46374 -0.914238,-1.09608 -1.22838,-1.89703 -0.342636,-0.86751 -0.519728,-1.82901 -0.531286,-2.88451 -0.0106,-0.98667 0.1316,-1.92852 0.427122,-2.82555 0.295804,-0.87408 0.676446,-1.60587 1.141936,-2.19535 0.54844,-0.61927 1.141628,-0.95514 1.779562,-1.00761 z"
           id="path12762"
           style="display:inline;opacity:1;fill:#d4fc44;fill-opacity:1;stroke-width:0.744216" />
      </g>
    </g>
  </g>
  <metadata
     id="metadata1168">
    <rdf:RDF>
      <cc:License
         rdf:about="http://creativecommons.org/licenses/by-nc/4.0/">
        <cc:permits
           rdf:resource="http://creativecommons.org/ns#Reproduction" />
        <cc:permits
           rdf:resource="http://creativecommons.org/ns#Distribution" />
        <cc:requires
           rdf:resource="http://creativecommons.org/ns#Notice" />
        <cc:requires
           rdf:resource="http://creativecommons.org/ns#Attribution" />
        <cc:prohibits
           rdf:resource="http://creativecommons.org/ns#CommercialUse" />
        <cc:permits
           rdf:resource="http://creativecommons.org/ns#DerivativeWorks" />
      </cc:License>
      <cc:Work
         rdf:about="">
        <cc:license
           rdf:resource="http://creativecommons.org/licenses/by-nc/4.0/" />
      </cc:Work>
    </rdf:RDF>
  </metadata>
</svg>
